<svg width="24" height="24" viewBox="0 0 24 24" fill="none" xmlns="http://www.w3.org/2000/svg">
<g clip-path="url(#clip0_897_2133)">
<path d="M20.3288 4.61211C18.7513 3.88991 17.086 3.37755 15.3754 3.08813C15.1413 3.50659 14.9295 3.93713 14.7409 4.37794C12.9187 4.10337 11.0657 4.10337 9.24361 4.37794C9.05487 3.93717 8.84307 3.50664 8.60909 3.08813C6.89738 3.38 5.23097 3.89357 3.65192 4.61589C0.517093 9.25392 -0.332708 13.7767 0.0921924 18.2354C1.92802 19.5918 3.98284 20.6233 6.16733 21.2852C6.65921 20.6237 7.09446 19.9218 7.46847 19.1871C6.7581 18.9218 6.07246 18.5945 5.4195 18.2089C5.59135 18.0843 5.75942 17.9559 5.92183 17.8312C7.82179 18.7248 9.8955 19.188 11.9951 19.188C14.0946 19.188 16.1684 18.7248 18.0683 17.8312C18.2326 17.9653 18.4007 18.0937 18.5706 18.2089C17.9164 18.5951 17.2295 18.9231 16.5179 19.189C16.8915 19.9234 17.3267 20.6246 17.819 21.2852C20.0054 20.626 22.0618 19.5949 23.898 18.2373C24.3965 13.0667 23.0463 8.58541 20.3288 4.61211ZM8.00667 15.4933C6.82262 15.4933 5.8444 14.4188 5.8444 13.0969C5.8444 11.775 6.78863 10.691 8.0029 10.691C9.21717 10.691 10.1878 11.775 10.1671 13.0969C10.1463 14.4188 9.21339 15.4933 8.00667 15.4933ZM15.9835 15.4933C14.7975 15.4933 13.8231 14.4188 13.8231 13.0969C13.8231 11.775 14.7673 10.691 15.9835 10.691C17.1996 10.691 18.1627 11.775 18.142 13.0969C18.1212 14.4188 17.1902 15.4933 15.9835 15.4933Z" fill="#0D0D0D"/>
</g>
<defs>
<clipPath id="clip0_897_2133">
<rect width="24" height="24" fill="white"/>
</clipPath>
</defs>
</svg>
