<svg width="24" height="19" viewBox="0 0 24 19" fill="none" xmlns="http://www.w3.org/2000/svg">
<path d="M20.3288 1.61211C18.7513 0.889909 17.086 0.377554 15.3754 0.0881348C15.1413 0.506592 14.9295 0.937129 14.7409 1.37794C12.9187 1.10337 11.0657 1.10337 9.24361 1.37794C9.05487 0.937175 8.84307 0.506643 8.60909 0.0881348C6.89738 0.379998 5.23097 0.893569 3.65192 1.61589C0.517093 6.25392 -0.332708 10.7767 0.0921924 15.2354C1.92802 16.5918 3.98284 17.6233 6.16733 18.2852C6.65921 17.6237 7.09446 16.9218 7.46847 16.1871C6.7581 15.9218 6.07246 15.5945 5.4195 15.2089C5.59135 15.0843 5.75942 14.9559 5.92183 14.8312C7.82179 15.7248 9.8955 16.188 11.9951 16.188C14.0946 16.188 16.1684 15.7248 18.0683 14.8312C18.2326 14.9653 18.4007 15.0937 18.5706 15.2089C17.9164 15.5951 17.2295 15.9231 16.5179 16.189C16.8915 16.9234 17.3267 17.6246 17.819 18.2852C20.0054 17.626 22.0618 16.5949 23.898 15.2373C24.3965 10.0667 23.0463 5.58541 20.3288 1.61211ZM8.00667 12.4933C6.82262 12.4933 5.8444 11.4188 5.8444 10.0969C5.8444 8.77499 6.78863 7.69102 8.0029 7.69102C9.21717 7.69102 10.1878 8.77499 10.1671 10.0969C10.1463 11.4188 9.21339 12.4933 8.00667 12.4933ZM15.9835 12.4933C14.7975 12.4933 13.8231 11.4188 13.8231 10.0969C13.8231 8.77499 14.7673 7.69102 15.9835 7.69102C17.1996 7.69102 18.1627 8.77499 18.142 10.0969C18.1212 11.4188 17.1902 12.4933 15.9835 12.4933Z" fill="#0D0D0D"/>
</svg>
