<svg width="115" height="103" viewBox="0 0 115 103" fill="none" xmlns="http://www.w3.org/2000/svg">
<g clip-path="url(#clip0_1326_7732)">
<path d="M57.502 61.7495C63.1629 61.7495 67.752 57.1604 67.752 51.4995C67.752 45.8385 63.1629 41.2495 57.502 41.2495C51.841 41.2495 47.252 45.8385 47.252 51.4995C47.252 57.1604 51.841 61.7495 57.502 61.7495Z" fill="#61DAFB"/>
<path d="M57.5039 72.5C87.8796 72.5 112.504 63.0979 112.504 51.5C112.504 39.902 87.8796 30.5 57.5039 30.5C27.1282 30.5 2.50391 39.902 2.50391 51.5C2.50391 63.0979 27.1282 72.5 57.5039 72.5Z" stroke="#61DAFB" stroke-width="5"/>
<path d="M39.3164 61.9999C54.5042 88.306 74.9588 104.93 85.0029 99.1313C95.0471 93.3323 90.8773 67.306 75.6895 40.9999C60.5016 14.6938 40.0471 -1.93052 30.0029 3.86847C19.9588 9.66746 24.1286 35.6938 39.3164 61.9999Z" stroke="#61DAFB" stroke-width="5"/>
<path d="M39.3164 40.9997C24.1286 67.3058 19.9588 93.3321 30.0029 99.1311C40.0471 104.93 60.5016 88.3058 75.6895 61.9997C90.8773 35.6936 95.0471 9.66734 85.0029 3.86835C74.9588 -1.93064 54.5042 14.6936 39.3164 40.9997Z" stroke="#61DAFB" stroke-width="5"/>
</g>
<defs>
<clipPath id="clip0_1326_7732">
<rect width="115" height="102.317" fill="white" transform="translate(0 0.341309)"/>
</clipPath>
</defs>
</svg>
