<svg width="150" height="150" viewBox="0 0 150 150" fill="none" xmlns="http://www.w3.org/2000/svg">
    <g clip-path="url(#clip0_304_1313)">
        <path d="M149.157 63.7318C143.721 27.6565 112.591 0 75 0C33.5789 0 0 33.5789 0 75C0 112.68 27.7884 143.867 63.9893 149.193L149.157 63.7318Z" fill="#0F1E54"/>
        <path d="M32.4536 117.658L63.9894 149.193C67.5835 149.722 71.2591 150 75 150C116.421 150 150 116.421 150 75.0002C150 71.1702 149.711 67.4076 149.157 63.732L117.768 32.3428L32.4536 117.658Z" fill="#0F1E54"/>
        <path d="M68.4782 13.0437C68.4782 16.6458 68.4782 19.5655 68.4782 19.5655H78.2607L75 6.52197C71.3979 6.52197 68.4782 9.4417 68.4782 13.0437Z" fill="#0DC2AF"/>
        <path d="M75 6.52197V19.5655H81.5218C81.5218 19.5655 81.5218 16.6458 81.5218 13.0437C81.5218 9.4417 78.6021 6.52197 75 6.52197Z" fill="#059866"/>
        <path d="M75.1107 14.6738C41.7926 14.6738 14.7847 41.6817 14.7847 74.9999C14.7847 108.318 41.7926 135.326 75.1107 135.326L84.7825 74.9999L75.1107 14.6738Z" fill="#5CEDDE"/>
        <path d="M75.1107 135.326C108.429 135.326 135.437 108.318 135.437 74.9999C135.437 41.6817 108.429 14.6738 75.1107 14.6738V135.326Z" fill="#0DC2AF"/>
        <path d="M75.1107 24.4565C47.1955 24.4565 24.5672 47.0846 24.5672 75.0001C24.5672 102.916 47.1952 125.544 75.1107 125.544L84.7825 75.0001L75.1107 24.4565Z" fill="white"/>
        <path d="M75.1107 125.544C103.026 125.544 125.654 102.916 125.654 75.0001C125.654 47.0846 103.026 24.4565 75.1107 24.4565V125.544Z" fill="#98F0E7"/>
        <path d="M75.1108 58.6958C66.1058 58.6958 58.8065 65.9951 58.8065 75.0001C58.8065 84.0051 66.1058 91.3044 75.1108 91.3044L78.2309 75.0001L75.1108 58.6958Z" fill="#5CEDDE"/>
        <path d="M78.261 112.393H71.7393V118.914H78.261V112.393Z" fill="#0DC2AF"/>
        <path d="M78.261 30.8706H71.7393V37.3924H78.261V30.8706Z" fill="#0DC2AF"/>
        <path d="M37.5 71.7393H30.9782V78.261H37.5V71.7393Z" fill="#34D8C7"/>
        <path d="M119.022 71.7393H112.5V78.261H119.022V71.7393Z" fill="#0DC2AF"/>
        <path d="M77.3065 72.6938L43.8744 106.126L73.069 91.273C77.8356 91.8153 82.7953 90.2629 86.4512 86.6066L77.3065 72.6938Z" fill="#ED004C"/>
        <path d="M63.3932 63.5488C59.7366 67.2054 58.1845 72.1653 58.7271 76.9322L43.8741 106.126L77.3063 72.6936L63.3932 63.5488Z" fill="#F06A8B"/>
        <path d="M106.124 43.877L75.0003 75.0002L85.1347 85.1346L85.1874 85.0309L86.6071 86.4506C90.2628 82.7949 91.8152 77.8353 91.2735 73.0689C91.2741 73.0692 106.128 43.8746 106.124 43.877Z" fill="#011911"/>
        <path d="M76.9339 58.727C72.1667 58.1838 67.2065 59.7362 63.5496 63.3931L64.9699 64.8134L64.8659 64.8661L75.0003 75.0002L106.124 43.877L76.9339 58.727Z" fill="#0DC2AF"/>
        <path d="M68.194 68.0825C64.3737 71.9028 64.3737 78.0968 68.194 81.9171C72.0143 85.7374 78.2083 85.7374 82.0286 81.9171L76.435 73.6762L68.194 68.0825Z" fill="white"/>
        <path d="M82.0289 81.9171C85.8492 78.0968 85.8492 71.9028 82.0289 68.0825C78.2086 64.2622 72.0146 64.2622 68.1943 68.0825L82.0289 81.9171Z" fill="#98F0E7"/>
    </g>
    <defs>
        <clipPath id="clip0_304_1313">
            <rect width="150" height="150" fill="white"/>
        </clipPath>
    </defs>
</svg>